<?xml version="1.0" encoding="utf-8"?>
<!-- Generator: Adobe Illustrator 23.0.3, SVG Export Plug-In . SVG Version: 6.00 Build 0)  -->
<svg version="1.1" id="Слой_1" xmlns="http://www.w3.org/2000/svg" xmlns:xlink="http://www.w3.org/1999/xlink" x="0px" y="0px"
	 viewBox="0 0 32 61" style="enable-background:new 0 0 32 61;" xml:space="preserve">
<style type="text/css">
	.st0{enable-background:new    ;}
	.st1{fill:#0F0446;}
</style>
<g class="st0">
	<path class="st1" d="M2,41.6c0-6.3,4.8-9.2,11.7-9.2c2.9,0,5,0.5,7.1,1.2V33c0-3.4-2.1-5.3-6.2-5.3c-3.1,0-5.3,0.6-8,1.6l-2.1-6.3
		c3.2-1.4,6.3-2.3,11.2-2.3c4.5,0,7.7,1.2,9.8,3.2c2.2,2.2,3.1,5.3,3.1,9.2V50h-7.9v-3.1c-2,2.2-4.8,3.7-8.7,3.7
		C6.4,50.5,2,47.4,2,41.6z M20.8,39.8v-1.5c-1.4-0.6-3.2-1.1-5.2-1.1c-3.5,0-5.7,1.4-5.7,4.1c0,2.2,1.8,3.5,4.5,3.5
		C18.2,44.9,20.8,42.8,20.8,39.8z"/>
</g>
</svg>
