<svg xmlns="http://www.w3.org/2000/svg" width="74.803" height="90" viewBox="0 0 74.803 90">
  <defs>
    <style>
      .cls-1 {
        fill: #fff;
      }
    </style>
  </defs>
  <g id="atom_1_" data-name="atom(1)" transform="translate(-58.263 -19.341)">
    <path id="Path_38" data-name="Path 38" class="cls-1" d="M222.342,230.989a7.876,7.876,0,1,0-7.851-7.876A7.876,7.876,0,0,0,222.342,230.989Zm0-13.1a5.227,5.227,0,1,1-5.2,5.227,5.227,5.227,0,0,1,5.2-5.227Z" transform="translate(-126.672 -158.836)"/>
    <path id="Path_39" data-name="Path 39" class="cls-1" d="M59.574,91.039A7.863,7.863,0,0,0,65,93.97a15.268,15.268,0,0,0,2.29.161c4.16,0,9.54-1.4,15.511-3.924.492,1.959,1.037,3.819,1.637,5.558,3.023,8.759,7.152,13.577,11.634,13.577h.065c4.507-.047,8.56-4.955,11.414-13.818.52-1.616.993-3.333,1.416-5.135,5.8,2.412,11.022,3.744,15.081,3.744a15.345,15.345,0,0,0,2.29-.161,7.864,7.864,0,0,0,5.426-2.931c1.982-2.7,1.668-6.789-.816-11.864.187-.18.477-.377.477-.591h0a4.532,4.532,0,0,0-.919-6.362,4.471,4.471,0,0,0-4.229-.612,77.5,77.5,0,0,0-6.345-7.317,76.79,76.79,0,0,0,7.7-9.191c5.335-7.619,6.8-13.819,4.132-17.457a7.861,7.861,0,0,0-5.426-2.931c-4.359-.659-10.62.732-17.725,3.729q-.425-1.7-.908-3.284a4.553,4.553,0,0,0-2.587-8.324h0a4.547,4.547,0,0,0-.776.076c-2.632-4.958-5.756-7.569-9.075-7.569H95.2c-4.507.047-8.56,4.955-11.415,13.819-.52,1.615-.993,3.332-1.416,5.134C75.413,35.4,69.287,34.063,65,34.712a7.864,7.864,0,0,0-5.426,2.931C56.9,41.281,58.37,47.481,63.7,55.1a76.74,76.74,0,0,0,7.7,9.191,77.579,77.579,0,0,0-6.35,7.318,4.581,4.581,0,0,0-.887-.227,4.5,4.5,0,0,0-3.374.838,4.566,4.566,0,0,0-.961,6.362h0a4.6,4.6,0,0,0,.52.589C57.864,84.248,57.592,88.339,59.574,91.039ZM81.48,87.91c-6.65,2.783-12.361,4.005-16.083,3.441a5.348,5.348,0,0,1-3.688-1.88c-1.342-1.827-.982-5.041,1-9.105.032.005.063.014.095.019a4.616,4.616,0,0,0,.688.052,4.5,4.5,0,0,0,2.686-.89,4.567,4.567,0,0,0,.979-6.338,74.864,74.864,0,0,1,6.106-7.04c2.116,2.076,4.4,4.143,6.825,6.17a108.629,108.629,0,0,0,2.1,15.263c-.238.1-.477.209-.714.308Zm6.334-34.275c2.6-1.926,5.234-3.722,7.856-5.373,2.622,1.65,5.252,3.446,7.856,5.373q2.689,1.989,5.168,4.011.183,3.2.219,6.556c.024,2.272-.012,4.517-.1,6.721q-2.547,2.1-5.284,4.124c-2.6,1.926-5.234,3.722-7.855,5.373-2.622-1.65-5.252-3.446-7.855-5.373q-2.664-1.971-5.156-4.018c-.131-2.147-.208-4.335-.232-6.55-.024-2.279.012-4.53.1-6.739q2.53-2.066,5.284-4.1Zm-5.085.551a102.773,102.773,0,0,1,1.556-12.173,99.249,99.249,0,0,1,8.875,4.715c-2.306,1.482-4.622,3.079-6.92,4.779Q84.439,52.838,82.729,54.186ZM98.18,46.726c2.9-1.723,5.77-3.256,8.568-4.569a101.5,101.5,0,0,1,1.689,11.892q-1.627-1.279-3.337-2.544c-2.3-1.7-4.615-3.3-6.92-4.778Zm13.381,17.449q-.022-2.134-.1-4.212,2.507,2.166,4.743,4.337-2.209,2.167-4.666,4.313Q111.584,66.414,111.561,64.175Zm-2.949,10.314a102.778,102.778,0,0,1-1.556,12.181,99.329,99.329,0,0,1-8.876-4.714c2.306-1.483,4.622-3.078,6.921-4.779Q106.892,75.851,108.612,74.488ZM93.161,81.955c-2.873,1.709-5.721,3.229-8.5,4.535a103.631,103.631,0,0,1-1.731-11.843q1.62,1.279,3.307,2.528c2.3,1.7,4.615,3.3,6.921,4.78ZM79.779,64.507q.022,2.105.109,4.177-2.495-2.176-4.748-4.384,2.2-2.135,4.667-4.272-.052,2.219-.029,4.479Zm25.252,30.2c-2.44,7.581-5.693,11.975-8.921,11.975h-.038c-3.216,0-6.542-4.287-9.13-11.786-.621-1.8-1.183-3.732-1.684-5.778a104.239,104.239,0,0,0,10.411-5.59,103.476,103.476,0,0,0,10.83,5.781C106.065,91.21,105.575,93.014,105.031,94.7Zm24.6-5.233a5.349,5.349,0,0,1-3.688,1.88c-3.722.563-9.434-.659-16.083-3.441-.107-.045-.216-.093-.323-.139A107.731,107.731,0,0,0,111.4,72.212c2.367-1.986,4.6-4.011,6.673-6.042a74.82,74.82,0,0,1,6.106,7.04,4.567,4.567,0,0,0,.979,6.338,4.5,4.5,0,0,0,2.686.889,4.593,4.593,0,0,0,.688-.052l.1-.017C130.613,84.431,130.973,87.644,129.631,89.471ZM127.573,74a1.911,1.911,0,0,1,.285-.022,1.871,1.871,0,0,1,1.116.37,1.914,1.914,0,0,1,.4,2.666,1.884,1.884,0,0,1-2.642.4,1.913,1.913,0,0,1-.4-2.666A1.878,1.878,0,0,1,127.573,74ZM109.86,40.772c6.649-2.782,12.36-4,16.083-3.441a5.351,5.351,0,0,1,3.688,1.88c1.918,2.612.4,7.85-4.165,14.37a74.013,74.013,0,0,1-7.4,8.841q-3.139-3.049-6.8-6.089a106.927,106.927,0,0,0-2.046-15.286C109.433,40.956,109.647,40.861,109.86,40.772Zm-4.714-11.28h.019a1.892,1.892,0,1,1,.019,3.784h-.019a1.892,1.892,0,0,1-.019-3.784ZM86.309,33.972C88.749,26.391,92,22.023,95.23,21.99c2.254-.025,4.642,2.149,6.765,6.143a4.542,4.542,0,0,0,3.171,7.792h.01c.351,1.135.678,2.354.981,3.594A104.187,104.187,0,0,0,95.67,45.15a103.5,103.5,0,0,0-10.829-5.782C85.275,37.466,85.765,35.661,86.309,33.972Zm-24.6,5.24a5.348,5.348,0,0,1,3.688-1.88c3.723-.563,9.434.659,16.083,3.441.107.045.215.093.322.139a107.719,107.719,0,0,0-1.863,15.534q-3.576,2.975-6.666,5.978a74.045,74.045,0,0,1-7.4-8.842c-4.566-6.52-6.084-11.758-4.166-14.37Zm.656,35.138a1.884,1.884,0,0,1,2.642.4,1.914,1.914,0,0,1-.4,2.666,1.884,1.884,0,0,1-2.642-.4h0a1.914,1.914,0,0,1,.4-2.666Z" transform="translate(0 0)"/>
  </g>
</svg>
