<svg xmlns="http://www.w3.org/2000/svg" width="61.699" height="90" viewBox="0 0 61.699 90">
  <defs>
    <style>
      .cls-1 {
        fill: #fff;
      }
    </style>
  </defs>
  <g id="book" transform="translate(-80.5)">
    <g id="Group_89" data-name="Group 89" transform="translate(103.088 9.932)">
      <g id="Group_88" data-name="Group 88">
        <path id="Path_53" data-name="Path 53" class="cls-1" d="M230.006,67.768a4.01,4.01,0,0,0-1.371.229l-3.709-4.957a4.06,4.06,0,0,0,.773-2.408,4.131,4.131,0,1,0-7.576,2.285l-3.762,5.027a4.009,4.009,0,0,0-1.23-.193,4.131,4.131,0,1,0,4.131,4.131,4.007,4.007,0,0,0-.773-2.391l3.709-4.957a3.872,3.872,0,0,0,1.371.229,4.1,4.1,0,0,0,1.23-.193l3.762,5.063a4.773,4.773,0,0,0-.475,1h-6.012V73.27h6.012a4.141,4.141,0,1,0,3.92-5.5Zm-16.875,5.607a1.494,1.494,0,1,1,1.494-1.494A1.493,1.493,0,0,1,213.131,73.375Zm8.438-11.25a1.494,1.494,0,1,1,1.494-1.494A1.493,1.493,0,0,1,221.568,62.125Zm8.438,11.25a1.494,1.494,0,1,1,1.494-1.494A1.493,1.493,0,0,1,230.006,73.375Z" transform="translate(-209 -56.5)"/>
      </g>
    </g>
    <g id="Group_91" data-name="Group 91" transform="translate(108.537 46.582)">
      <g id="Group_90" data-name="Group 90">
        <rect id="Rectangle_87" data-name="Rectangle 87" class="cls-1" width="14.238" height="2.637"/>
      </g>
    </g>
    <g id="Group_93" data-name="Group 93" transform="translate(108.537 57.832)">
      <g id="Group_92" data-name="Group 92">
        <rect id="Rectangle_88" data-name="Rectangle 88" class="cls-1" width="14.238" height="2.637"/>
      </g>
    </g>
    <g id="Group_95" data-name="Group 95" transform="translate(102.912 52.207)">
      <g id="Group_94" data-name="Group 94">
        <rect id="Rectangle_89" data-name="Rectangle 89" class="cls-1" width="25.488" height="2.637"/>
      </g>
    </g>
    <path id="Path_54" data-name="Path 54" class="cls-1" d="M191.518,456h5.766c.018,0,.018,0,.018.018v7.172c0,.018,0,.018-.018.018h-5.766c-.018,0-.018,0-.018-.018l.018-7.189Z" transform="translate(-91.488 -375.844)"/>
    <path id="Path_55" data-name="Path 55" class="cls-1" d="M87.531,0A7.052,7.052,0,0,0,80.5,7.031V78.75a7.052,7.052,0,0,0,7.031,7.031h9.844v2.9L98.693,90h8.438l1.318-1.318V80.156h22.588V77.52H91.662v2.637h5.713v2.988H87.619a4.462,4.462,0,0,1-4.377-3.973,4.307,4.307,0,0,1,4.289-4.641h47.813a6.405,6.405,0,0,0,4.219-1.6V78.75a4.407,4.407,0,0,1-4.395,4.395H114.145v2.637h21.2a6.864,6.864,0,0,0,6.855-6.855V7.049C142.2,2.637,139.563,0,135.344,0Zm52.031,67.5a4.407,4.407,0,0,1-4.395,4.395H87.531a7.113,7.113,0,0,0-4.395,1.424V6.943a4.314,4.314,0,0,1,4.307-4.307h1.494V67.5h2.637V2.637H135.15a4.1,4.1,0,0,1,4.412,4.324Z"/>
    <circle id="Ellipse_5" data-name="Ellipse 5" class="cls-1" cx="1.318" cy="1.318" r="1.318" transform="translate(101.594 52.207)"/>
    <circle id="Ellipse_6" data-name="Ellipse 6" class="cls-1" cx="1.318" cy="1.318" r="1.318" transform="translate(127.082 52.207)"/>
    <circle id="Ellipse_7" data-name="Ellipse 7" class="cls-1" cx="1.318" cy="1.318" r="1.318" transform="translate(121.457 46.582)"/>
    <circle id="Ellipse_8" data-name="Ellipse 8" class="cls-1" cx="1.318" cy="1.318" r="1.318" transform="translate(107.219 46.582)"/>
    <circle id="Ellipse_9" data-name="Ellipse 9" class="cls-1" cx="1.318" cy="1.318" r="1.318" transform="translate(105.9 38.145)"/>
    <circle id="Ellipse_10" data-name="Ellipse 10" class="cls-1" cx="1.318" cy="1.318" r="1.318" transform="translate(112.844 24.082)"/>
    <circle id="Ellipse_11" data-name="Ellipse 11" class="cls-1" cx="1.318" cy="1.318" r="1.318" transform="translate(114.338 38.145)"/>
    <circle id="Ellipse_12" data-name="Ellipse 12" class="cls-1" cx="1.318" cy="1.318" r="1.318" transform="translate(122.775 38.145)"/>
    <circle id="Ellipse_13" data-name="Ellipse 13" class="cls-1" cx="1.318" cy="1.318" r="1.318" transform="translate(121.457 57.832)"/>
    <circle id="Ellipse_14" data-name="Ellipse 14" class="cls-1" cx="1.318" cy="1.318" r="1.318" transform="translate(107.219 57.832)"/>
    <circle id="Ellipse_15" data-name="Ellipse 15" class="cls-1" cx="1.318" cy="1.318" r="1.318" transform="translate(90.344 77.52)"/>
    <circle id="Ellipse_16" data-name="Ellipse 16" class="cls-1" cx="1.318" cy="1.318" r="1.318" transform="translate(97.375 87.363)"/>
    <circle id="Ellipse_17" data-name="Ellipse 17" class="cls-1" cx="1.318" cy="1.318" r="1.318" transform="translate(105.813 87.363)"/>
    <circle id="Ellipse_18" data-name="Ellipse 18" class="cls-1" cx="1.318" cy="1.318" r="1.318" transform="translate(129.719 77.52)"/>
    <circle id="Ellipse_19" data-name="Ellipse 19" class="cls-1" cx="1.318" cy="1.318" r="1.318" transform="translate(112.826 83.162)"/>
  </g>
</svg>
