<svg xmlns="http://www.w3.org/2000/svg" width="76.466" height="90" viewBox="0 0 76.466 90">
  <defs>
    <style>
      .cls-1 {
        fill: #fff;
      }
    </style>
  </defs>
  <g id="brain" transform="translate(-39.51 -1)">
    <g id="Group_69" data-name="Group 69" transform="translate(39.51 1)">
      <g id="Group_68" data-name="Group 68" transform="translate(0)">
        <path id="Path_42" data-name="Path 42" class="cls-1" d="M115.333,44.506c2.343-12.726-1.482-30.219-15.419-38.555A38.728,38.728,0,0,0,70.978,2.31C57.47,5.922,47.541,15.615,44.419,28.238a25.667,25.667,0,0,0-.874,7.864,26.4,26.4,0,0,0,.907,4.86,21,21,0,0,1,.9,6.233c-.063,2.513-1.794,5.12-3.323,7.421-1.667,2.511-3.106,4.679-2.271,6.678A4.9,4.9,0,0,0,43.5,63.7a1.793,1.793,0,0,0,.272.028,1.406,1.406,0,0,1,1.573,1.5c0,3.116.078,4.724,1.365,5.461a2.745,2.745,0,0,0-.233.74,2.671,2.671,0,0,0,.845,2.364A4.555,4.555,0,0,0,49.7,75c.063.015.123.026.182.04a3.834,3.834,0,0,1,.047.674,16.142,16.142,0,0,1-.119,1.668c-.249,2.4-.59,5.684,4.209,7.252a9.883,9.883,0,0,0,2.961.36,46.967,46.967,0,0,0,13.331-2.555A16.943,16.943,0,0,1,72.5,89.5,1.5,1.5,0,0,0,74,91h37.488a1.488,1.488,0,0,0,1.4-1.037,1.534,1.534,0,0,0-.536-1.689c-1.551-1.178-6.69-13.59-6.848-18.048.453-1.028,1.059-2.183,1.778-3.524A70.462,70.462,0,0,0,115.333,44.506ZM102.5,70.076c.038,3.586,3.271,13.062,6.049,17.925H75.376a21.476,21.476,0,0,0-2.2-6.578c4.345-1.7,8.172-3.892,10.009-6.295A1.5,1.5,0,0,0,80.8,73.306c-4.244,5.553-21.9,9.769-25.844,8.48-2.5-.816-2.4-1.775-2.157-4.091a18.854,18.854,0,0,0,.135-1.978c0-2.527-1.019-3.281-2.551-3.636a1.922,1.922,0,0,1-.807-.312,4.162,4.162,0,0,1,.991-.7A1.5,1.5,0,0,0,49.9,68.22c-.542,0-1.144,0-1.46-.04a23.153,23.153,0,0,1-.1-2.958,4.386,4.386,0,0,0-4.389-4.495c-1.081-.228-1.409-.521-1.437-.589-.218-.521,1.227-2.7,2-3.864,1.665-2.507,3.737-5.628,3.822-9a21.041,21.041,0,0,0-.62-5.562,14.946,14.946,0,0,1,5.654-3.118,4.649,4.649,0,0,1,2.229.156,1.5,1.5,0,0,0,.8-2.891,7.567,7.567,0,0,0-3.646-.2,15.452,15.452,0,0,0-5.81,2.886,17.819,17.819,0,0,1-.415-2.656,22.2,22.2,0,0,1,.8-6.928c2.9-11.719,11.8-20.376,24.423-23.751a35.62,35.62,0,0,1,26.62,3.319c12.709,7.6,16.171,23.7,14.01,35.437a66.914,66.914,0,0,1-7.741,21.325c-.825,1.538-1.536,2.867-2.05,4.1A1.466,1.466,0,0,0,102.5,70.076Z" transform="translate(-39.51 -1)"/>
        <path id="Path_43" data-name="Path 43" class="cls-1" d="M182.864,76.2a4.5,4.5,0,0,0-3.653-4.834l-2.872-3.98a4.447,4.447,0,0,0,.4-1.029l2.781-1.112a4.488,4.488,0,1,0,4.344-7.343l-2.253-4.494a4.48,4.48,0,0,0-5.509-6.975l-2.512-2.086a4.482,4.482,0,0,0-7.445-4.661L161.7,38.572a4.47,4.47,0,0,0-8.6-.052l-5.941,1.188A4.477,4.477,0,0,0,140,44.992l-2.911,3.877a4.485,4.485,0,0,0-.257,8.773l2.407,5.943a4.491,4.491,0,1,0,7.381,4.7h8.051a4.343,4.343,0,0,0,4.908,2.93l4.978,7.572a4.487,4.487,0,1,0,7.752,3.778l3.716-2.97a4.476,4.476,0,0,0,6.841-3.394Zm.019-15.414a1.5,1.5,0,1,1-1.373,2.095c-.005-.014,0-.028-.008-.042l-.009-.015a1.478,1.478,0,0,1-.109-.539A1.5,1.5,0,0,1,182.883,60.784Zm-5.967-10.8a1.5,1.5,0,1,1,1.468,1.8,1.482,1.482,0,0,1-.541-.109l-.013-.008c-.013-.005-.027,0-.041-.008A1.5,1.5,0,0,1,176.916,49.982Zm-1.492,3.666h0l-2.771,6.929L167.8,56.69a4.475,4.475,0,0,0,1.387-2.134l5.941-1.188C175.218,53.468,175.321,53.557,175.425,53.648Zm-1.6,12.04a1.5,1.5,0,1,1-1.442-1.9,1.482,1.482,0,0,1,.541.109l.013.008c.014.005.028,0,.041.008A1.5,1.5,0,0,1,173.828,65.687Zm-4.441-24.4a1.5,1.5,0,1,1-1.5,1.5A1.5,1.5,0,0,1,169.387,41.29Zm-7.891.323,3.425.856c-.008.108-.032.211-.032.321a4.5,4.5,0,0,0,4.5,4.5,4.45,4.45,0,0,0,2.28-.642l2.512,2.086a4.453,4.453,0,0,0-.294,1.556c0,.091.022.176.027.265l-4.884.977a4.5,4.5,0,0,0-3.449-2.671l-5.49-5.49A4.511,4.511,0,0,0,161.5,41.612Zm4.892,11.674a1.5,1.5,0,1,1-1.5-1.5A1.5,1.5,0,0,1,166.388,53.286Zm-9-15a1.5,1.5,0,1,1-1.5,1.5A1.5,1.5,0,0,1,157.391,38.29Zm.3,6.917,4.5,4.5a4.491,4.491,0,0,0-1.524,2.077h-3.552a4.492,4.492,0,0,0-1.955-2.364Zm-9.321-2.683,4.884-.977a4.51,4.51,0,0,0,1.873,2.106L152.4,48.19,147.7,45.171a4.458,4.458,0,0,0,.7-2.382C148.394,42.7,148.372,42.613,148.367,42.524Zm6.025,10.762a1.5,1.5,0,1,1-1.5-1.5A1.5,1.5,0,0,1,154.392,53.286Zm-10.5-12a1.5,1.5,0,1,1-1.5,1.5A1.5,1.5,0,0,1,143.9,41.29Zm-1.632,5.681a4.208,4.208,0,0,0,2.873.122l4.63,2.971a4.49,4.49,0,0,0-1.1,1.724h-6.551a4.5,4.5,0,0,0-1.772-2.264ZM137.9,54.785a1.5,1.5,0,1,1,1.5-1.5A1.5,1.5,0,0,1,137.9,54.785Zm4.5,13.5a1.5,1.5,0,1,1,1.5-1.5A1.5,1.5,0,0,1,142.4,68.281Zm.853-5.912a4.5,4.5,0,0,0-.853-.086,4.357,4.357,0,0,0-.434.044l-2.043-5.045a4.494,4.494,0,0,0,2.2-2.5h6.551a4.485,4.485,0,0,0,1.354,1.937Zm11.42,2.913h-8.051a4.465,4.465,0,0,0-.684-1.246L153.3,57.9l2.508,5.625A4.49,4.49,0,0,0,154.668,65.282Zm2.446-10.5h3.552a4.492,4.492,0,0,0,1.955,2.364l-3.118,5.2a4.458,4.458,0,0,0-.613-.062c-.116,0-.225.026-.339.034l-2.574-5.774A4.492,4.492,0,0,0,157.115,54.785Zm1.776,13.5a1.5,1.5,0,1,1,1.5-1.5A1.5,1.5,0,0,1,158.89,68.281Zm6.4-9.754,4.188,3.35a4.479,4.479,0,0,0-1.387,2.134l-5.062,1.012a4.5,4.5,0,0,0-.858-1.3Zm2.6,24.749a1.5,1.5,0,1,1,1.5-1.5A1.5,1.5,0,0,1,167.888,83.277Zm6-7.5a4.445,4.445,0,0,0,.267,1.468l-2.531,2.023a4.325,4.325,0,0,0-4.42-1.923l-4.978-7.572a4.47,4.47,0,0,0,.961-1.724l5.062-1.012a4.493,4.493,0,0,0,5.874,2.392L175.97,72A4.489,4.489,0,0,0,173.886,75.779Zm1.46-13.858,2.861-7.154c.06,0,.116.018.177.018a4.407,4.407,0,0,0,.539-.054l1.816,3.622a4.484,4.484,0,0,0-2.355,3.93c0,.061.016.117.018.177l-2.016.806A4.5,4.5,0,0,0,175.346,61.921Zm3.038,15.357a1.5,1.5,0,1,1,1.5-1.5A1.5,1.5,0,0,1,178.384,77.278Z" transform="translate(-116.899 -29.266)"/>
      </g>
    </g>
  </g>
</svg>
