<?xml version="1.0" encoding="utf-8"?>
<!-- Generator: Adobe Illustrator 23.0.3, SVG Export Plug-In . SVG Version: 6.00 Build 0)  -->
<svg version="1.1" id="Слой_1" xmlns="http://www.w3.org/2000/svg" xmlns:xlink="http://www.w3.org/1999/xlink" x="0px" y="0px"
	 viewBox="0 0 42 72" style="enable-background:new 0 0 42 72;" xml:space="preserve">
<style type="text/css">
	.st0{enable-background:new    ;}
	.st1{fill:#0F0446;}
</style>
<g class="st0">
	<path class="st1" d="M24.7,58.7v12h-7.5v-12h-0.5c-4.3,0-7.7-1.3-10.2-3.8c-2.5-2.6-3.8-6-3.8-10.3c0-5.3,1.5-9.9,4.5-13.6h8.6
		c-1.5,1.4-2.7,3.3-3.7,5.9s-1.5,5-1.5,7.4c0,2.5,0.6,4.5,1.7,5.9s2.6,2.2,4.5,2.2h0.5v-12c0-3.2,0.9-5.7,2.6-7.4s4.2-2.6,7.3-2.6
		c3.9,0,6.9,1.3,9.1,3.8s3.3,6.1,3.3,10.8c0,4.1-1.3,7.5-3.8,10s-6,3.8-10.3,3.8H24.7z M24.7,52.3h0.7c1.8,0,3.3-0.7,4.4-2.1
		s1.7-3.3,1.7-5.8c0-2.4-0.4-4.3-1.2-5.7s-1.8-2.1-3.1-2.1c-1.7,0-2.5,1-2.5,3.1V52.3z"/>
</g>
</svg>
