<svg xmlns="http://www.w3.org/2000/svg" width="54" height="54" viewBox="0 0 54 54">
  <defs>
    <style>
      .cls-1 {
        fill: #0f0446;
      }
    </style>
  </defs>
  <g id="gears" transform="translate(-16.935 -16.935)">
    <path id="Path_11" data-name="Path 11" class="cls-1" d="M70.135,39.1l-5.8-1.169A21.125,21.125,0,0,0,62.6,33.754l3.276-4.93a1,1,0,0,0-.126-1.262l-5.445-5.445a1,1,0,0,0-1.262-.126l-4.93,3.276a21.124,21.124,0,0,0-4.177-1.735L48.77,17.738a1,1,0,0,0-.984-.8h-7.7a1,1,0,0,0-.984.8l-1.169,5.791a21.124,21.124,0,0,0-4.177,1.735l-4.93-3.276a1,1,0,0,0-1.262.126l-5.445,5.445a1,1,0,0,0-.126,1.262l3.276,4.93a21.124,21.124,0,0,0-1.735,4.177L17.738,39.1a1,1,0,0,0-.8.984v7.7a1,1,0,0,0,.8.984l5.791,1.169a21.124,21.124,0,0,0,1.735,4.177l-3.276,4.93a1,1,0,0,0,.126,1.262l5.445,5.445a1,1,0,0,0,1.262.126l4.93-3.276a21.124,21.124,0,0,0,4.177,1.735l1.169,5.8a1,1,0,0,0,.984.8h7.7a1,1,0,0,0,.984-.8l1.169-5.794A21.124,21.124,0,0,0,54.113,62.6l4.93,3.276a1,1,0,0,0,1.262-.126l5.445-5.445a1,1,0,0,0,.126-1.262L62.6,54.116a21.124,21.124,0,0,0,1.735-4.177l5.8-1.169a1,1,0,0,0,.8-.984v-7.7A1,1,0,0,0,70.135,39.1Zm-1.2,7.859-5.6,1.128a1,1,0,0,0-.772.73,19.16,19.16,0,0,1-2.008,4.827,1,1,0,0,0,.03,1.062l3.161,4.761-4.282,4.282L54.7,60.589a1,1,0,0,0-1.062-.03,19.16,19.16,0,0,1-4.827,2.008,1,1,0,0,0-.73.772l-1.128,5.6h-6.05l-1.128-5.6a1,1,0,0,0-.73-.772,19.159,19.159,0,0,1-4.827-2.008,1,1,0,0,0-1.062.03L28.4,63.751l-4.282-4.282,3.161-4.761a1,1,0,0,0,.03-1.062,19.16,19.16,0,0,1-2-4.827,1,1,0,0,0-.772-.73l-5.6-1.128V40.905l5.6-1.128a1,1,0,0,0,.772-.73,19.16,19.16,0,0,1,2-4.827,1,1,0,0,0-.03-1.062L24.114,28.4,28.4,24.114l4.761,3.161a1,1,0,0,0,1.062.03,19.16,19.16,0,0,1,4.827-2,1,1,0,0,0,.73-.772l1.128-5.6h6.057l1.128,5.6a1,1,0,0,0,.73.772,19.16,19.16,0,0,1,4.827,2,1,1,0,0,0,1.062-.03l4.761-3.161L63.754,28.4l-3.161,4.761a1,1,0,0,0-.03,1.062,19.16,19.16,0,0,1,2.008,4.827,1,1,0,0,0,.772.73l5.6,1.128Z"/>
    <path id="Path_12" data-name="Path 12" class="cls-1" d="M53.715,39.877A13.838,13.838,0,1,0,67.553,53.715,13.838,13.838,0,0,0,53.715,39.877Zm0,25.668a11.83,11.83,0,1,1,11.83-11.83,11.83,11.83,0,0,1-11.83,11.83Z" transform="translate(-9.781 -9.781)"/>
    <path id="Path_13" data-name="Path 13" class="cls-1" d="M56.844,47.215a9.629,9.629,0,1,0,9.629,9.629A9.629,9.629,0,0,0,56.844,47.215Zm0,17.249a7.621,7.621,0,1,1,7.621-7.621,7.621,7.621,0,0,1-7.621,7.621Z" transform="translate(-12.91 -12.91)"/>
  </g>
</svg>
