<svg xmlns="http://www.w3.org/2000/svg" width="40" height="50.913" viewBox="0 0 40 50.913">
  <defs>
    <style>
      .cls-1 {
        fill: #0f0446;
      }
    </style>
  </defs>
  <g id="list" transform="translate(-47.037 0)">
    <g id="Group_11" data-name="Group 11" transform="translate(47.037 0)">
      <g id="Group_10" data-name="Group 10" transform="translate(0)">
        <path id="Path_14" data-name="Path 14" class="cls-1" d="M81.946,6.671H77.34V4.61c0-.667-.727-.97-1.394-.97H72.37A5.421,5.421,0,0,0,66.976,0,5.515,5.515,0,0,0,61.583,3.64H58.067c-.667,0-1.333.3-1.333.97V6.671H52.128a5.152,5.152,0,0,0-5.091,4.909V46.307a4.876,4.876,0,0,0,5.091,4.606H81.946a4.876,4.876,0,0,0,5.091-4.606V11.58A5.152,5.152,0,0,0,81.946,6.671ZM59.158,6.065h3.333a1.334,1.334,0,0,0,1.152-1.091,3.515,3.515,0,0,1,3.333-2.727,3.454,3.454,0,0,1,3.273,2.727,1.333,1.333,0,0,0,1.212,1.091h3.455v4.848H59.158ZM84.613,46.307a2.458,2.458,0,0,1-2.667,2.182H52.128a2.458,2.458,0,0,1-2.667-2.182V11.58A2.727,2.727,0,0,1,52.128,9.1h4.606v3.091a1.273,1.273,0,0,0,1.333,1.152H75.946a1.333,1.333,0,0,0,1.394-1.152V9.095h4.606a2.727,2.727,0,0,1,2.667,2.485V46.307Z" transform="translate(-47.037 0)"/>
        <path id="Path_15" data-name="Path 15" class="cls-1" d="M108.642,230.689a1.212,1.212,0,0,0-1.7-.061l-3.879,3.7-1.636-1.7a1.212,1.212,0,0,0-1.7-.061,1.273,1.273,0,0,0,0,1.758l2.485,2.545a1.091,1.091,0,0,0,.848.364,1.212,1.212,0,0,0,.848-.364l4.727-4.485a1.151,1.151,0,0,0,.07-1.627C108.69,230.735,108.666,230.712,108.642,230.689Z" transform="translate(-93.309 -203.594)"/>
        <path id="Path_16" data-name="Path 16" class="cls-1" d="M213.7,256.034H199.76a1.212,1.212,0,1,0,0,2.424H213.7a1.212,1.212,0,1,0,0-2.424Z" transform="translate(-180.972 -226.333)"/>
        <path id="Path_17" data-name="Path 17" class="cls-1" d="M108.642,147.1a1.212,1.212,0,0,0-1.7-.061l-3.879,3.7-1.636-1.7a1.212,1.212,0,0,0-1.7-.061,1.273,1.273,0,0,0,0,1.758l2.485,2.545a1.091,1.091,0,0,0,.848.364,1.212,1.212,0,0,0,.848-.364l4.727-4.485a1.151,1.151,0,0,0,.07-1.627C108.69,147.143,108.666,147.12,108.642,147.1Z" transform="translate(-93.309 -129.699)"/>
        <path id="Path_18" data-name="Path 18" class="cls-1" d="M213.7,172.442H199.76a1.212,1.212,0,0,0,0,2.424H213.7a1.212,1.212,0,0,0,0-2.424Z" transform="translate(-180.972 -152.438)"/>
        <path id="Path_19" data-name="Path 19" class="cls-1" d="M108.642,314.281a1.212,1.212,0,0,0-1.7-.061l-3.879,3.7-1.636-1.7a1.212,1.212,0,0,0-1.7-.061,1.273,1.273,0,0,0,0,1.758l2.485,2.545a1.091,1.091,0,0,0,.848.364,1.212,1.212,0,0,0,.848-.364l4.727-4.485a1.151,1.151,0,0,0,.07-1.627C108.69,314.326,108.666,314.3,108.642,314.281Z" transform="translate(-93.309 -277.489)"/>
        <path id="Path_20" data-name="Path 20" class="cls-1" d="M213.7,339.626H199.76a1.212,1.212,0,1,0,0,2.424H213.7a1.212,1.212,0,1,0,0-2.424Z" transform="translate(-180.972 -300.228)"/>
      </g>
    </g>
  </g>
</svg>
