<svg xmlns="http://www.w3.org/2000/svg" width="14" height="13.318" viewBox="0 0 14 13.318">
  <defs>
    <style>
      .cls-1 {
        fill: #0f0446;
      }
    </style>
  </defs>
  <g id="paper-clip" transform="translate(0 -11.486)">
    <g id="Group_103" data-name="Group 103" transform="translate(0 11.486)">
      <path id="Path_57" data-name="Path 57" class="cls-1" d="M12.813,12.612a3.947,3.947,0,0,0-5.521,0L.858,19.046a3.014,3.014,0,0,0,4.263,4.263l5.826-5.826A1.939,1.939,0,1,0,8.2,14.74L2.631,20.313a.507.507,0,0,0,.716.716L8.92,15.456a.927.927,0,0,1,1.31,1.31L4.4,22.592a2,2,0,0,1-2.83-2.83l6.434-6.434a2.935,2.935,0,1,1,4.152,4.15L5.726,23.912a.507.507,0,1,0,.714.714l6.434-6.434A3.947,3.947,0,0,0,12.813,12.612Z" transform="translate(0 -11.486)"/>
    </g>
  </g>
</svg>
