<?xml version="1.0" encoding="utf-8"?>
<!-- Generator: Adobe Illustrator 23.0.3, SVG Export Plug-In . SVG Version: 6.00 Build 0)  -->
<svg version="1.1" id="Слой_1" xmlns="http://www.w3.org/2000/svg" xmlns:xlink="http://www.w3.org/1999/xlink" x="0px" y="0px"
	 viewBox="0 0 74 75" style="enable-background:new 0 0 74 75;" xml:space="preserve">
<style type="text/css">
	.st0{enable-background:new    ;}
	.st1{fill:#0F0446;}
</style>
<g class="st0">
	<path class="st1" d="M34.5,47.4c-3.2,2.1-7,3.2-11.2,3.2c-11.7,0-20-8.7-20-19.5c0-10.7,8.5-19.5,20.1-19.5s20,8.7,20,19.5
		c0,3.9-1.2,7.7-3.3,10.9l3.9,3.3l-5.3,5.9L34.5,47.4z M28.4,42l-6.2-5.2l5.3-5.9l6.2,5.6c0.7-1.6,1-3.3,1-5.3
		c0-6.5-4.8-11.9-11.4-11.9c-6.7,0-11.3,5.3-11.3,11.9c0,6.5,4.8,11.9,11.4,11.9C25.2,43,26.9,42.6,28.4,42z"/>
</g>
<g class="st0">
	<path class="st1" d="M48.9,46h5.2l5.8,9.3l5.8-9.3H71v22h-4.8V53.6L59.9,63h-0.1l-6.1-9.3V68h-4.8V46z"/>
</g>
</svg>
