<svg xmlns="http://www.w3.org/2000/svg" width="90" height="90" viewBox="0 0 90 90">
  <defs>
    <style>
      .cls-1 {
        fill: #fff;
      }
    </style>
  </defs>
  <g id="rocket" transform="translate(-0.001)">
    <g id="Group_71" data-name="Group 71" transform="translate(44.225 42.261)">
      <g id="Group_70" data-name="Group 70">
        <path id="Path_44" data-name="Path 44" class="cls-1" d="M254.588,240.934a1.758,1.758,0,1,0,0,2.486A1.758,1.758,0,0,0,254.588,240.934Z" transform="translate(-251.587 -240.418)"/>
      </g>
    </g>
    <g id="Group_73" data-name="Group 73" transform="translate(54.599 17.827)">
      <g id="Group_72" data-name="Group 72">
        <path id="Path_45" data-name="Path 45" class="cls-1" d="M325.6,103.991a8.789,8.789,0,1,0,0,12.43A8.785,8.785,0,0,0,325.6,103.991Zm-2.486,9.944a5.274,5.274,0,1,1,0-7.458A5.281,5.281,0,0,1,323.117,113.935Z" transform="translate(-310.603 -101.415)"/>
      </g>
    </g>
    <g id="Group_75" data-name="Group 75" transform="translate(16.879 0)">
      <g id="Group_74" data-name="Group 74" transform="translate(0 0)">
        <path id="Path_46" data-name="Path 46" class="cls-1" d="M168.625.515A1.752,1.752,0,0,0,167.319,0a78.089,78.089,0,0,0-21.11,4.371,58.853,58.853,0,0,0-22.332,13.544c-1.3,1.3-2.566,2.68-3.777,4.113-5.739-3.378-10.338-2.319-13.245-.763-6.694,3.582-10.837,13.309-10.837,20.267a1.758,1.758,0,0,0,3,1.243,11.19,11.19,0,0,1,9.307-3.122l.616.616a61.826,61.826,0,0,0-2.9,8.538,4.976,4.976,0,0,0,.213,3.053,16.646,16.646,0,0,0-4.747,3.347c-4.525,4.525-5.444,15.552-5.48,16.02a1.758,1.758,0,0,0,1.752,1.9q.069,0,.139-.005c.467-.037,11.5-.956,16.02-5.48a16.646,16.646,0,0,0,3.346-4.746,4.964,4.964,0,0,0,3.055.211,61.835,61.835,0,0,0,8.536-2.9l.616.616a11.191,11.191,0,0,1-3.122,9.307,1.758,1.758,0,0,0,1.243,3c6.957,0,16.684-4.143,20.267-10.837,1.556-2.907,2.615-7.506-.763-13.245,1.432-1.21,2.811-2.476,4.113-3.777a58.858,58.858,0,0,0,13.544-22.331,78.087,78.087,0,0,0,4.371-21.11A1.758,1.758,0,0,0,168.625.515ZM99.948,37.751c1.092-5.285,4.264-11.083,8.567-13.386,2.876-1.539,6.019-1.388,9.361.441a71.072,71.072,0,0,0-7.385,12.039,1.853,1.853,0,0,0-.93-.547A15.024,15.024,0,0,0,99.948,37.751Zm11.5,27.4c-2.417,2.417-8.087,3.692-11.67,4.212.521-3.584,1.8-9.253,4.212-11.67a12.668,12.668,0,0,1,4.5-2.958l5.915,5.915A12.665,12.665,0,0,1,111.448,65.15Zm8.014-5.454a1.649,1.649,0,0,1-1.536-.5l-3.443-3.443-4.54-4.54a1.651,1.651,0,0,1-.5-1.536,57.078,57.078,0,0,1,2.195-6.714L126.175,57.5A57.039,57.039,0,0,1,119.462,59.7Zm25.313.93c-2.3,4.3-8.1,7.475-13.386,8.567a14.961,14.961,0,0,0,1.441-9.654,1.836,1.836,0,0,0-.535-.888,71.1,71.1,0,0,0,12.039-7.385C146.163,54.607,146.314,57.75,144.775,60.625Zm3.963-17.849a63.8,63.8,0,0,1-5.07,4.548,67.535,67.535,0,0,1-14.013,8.687L113.129,39.484a67.524,67.524,0,0,1,8.686-14.013,63.791,63.791,0,0,1,4.548-5.07A54.812,54.812,0,0,1,146.345,8.066l14.729,14.729A54.807,54.807,0,0,1,148.739,42.776Zm13.6-23.689L150.053,6.8a79.029,79.029,0,0,1,15.424-3.138A79.041,79.041,0,0,1,162.339,19.087Z" transform="translate(-96.018 0)"/>
      </g>
    </g>
    <g id="Group_77" data-name="Group 77" transform="translate(34.282 72.091)">
      <g id="Group_76" data-name="Group 76">
        <path id="Path_47" data-name="Path 47" class="cls-1" d="M202.992,410.636a1.758,1.758,0,0,0-2.486,0l-4.971,4.973a1.758,1.758,0,0,0,2.486,2.486l4.971-4.973A1.758,1.758,0,0,0,202.992,410.636Z" transform="translate(-195.021 -410.121)"/>
      </g>
    </g>
    <g id="Group_79" data-name="Group 79" transform="translate(9.422 47.232)">
      <g id="Group_78" data-name="Group 78">
        <path id="Path_48" data-name="Path 48" class="cls-1" d="M61.566,269.216a1.758,1.758,0,0,0-2.486,0l-4.973,4.971a1.758,1.758,0,1,0,2.485,2.486l4.973-4.971A1.758,1.758,0,0,0,61.566,269.216Z" transform="translate(-53.592 -268.701)"/>
      </g>
    </g>
    <g id="Group_81" data-name="Group 81" transform="translate(14.916 74.579)">
      <g id="Group_80" data-name="Group 80">
        <path id="Path_49" data-name="Path 49" class="cls-1" d="M99.76,424.786a1.758,1.758,0,0,0-2.486,0L85.366,436.691a1.758,1.758,0,0,0,2.486,2.486l11.907-11.906A1.758,1.758,0,0,0,99.76,424.786Z" transform="translate(-84.851 -424.271)"/>
      </g>
    </g>
    <g id="Group_83" data-name="Group 83" transform="translate(0.854 74.579)">
      <g id="Group_82" data-name="Group 82">
        <path id="Path_50" data-name="Path 50" class="cls-1" d="M19.76,424.786a1.758,1.758,0,0,0-2.486,0L5.366,436.691a1.758,1.758,0,0,0,2.486,2.486l11.907-11.906A1.758,1.758,0,0,0,19.76,424.786Z" transform="translate(-4.851 -424.271)"/>
      </g>
    </g>
    <g id="Group_85" data-name="Group 85" transform="translate(0.001 59.662)">
      <g id="Group_84" data-name="Group 84" transform="translate(0)">
        <path id="Path_51" data-name="Path 51" class="cls-1" d="M14.908,339.925a1.758,1.758,0,0,0-2.486,0L.516,351.832A1.758,1.758,0,1,0,3,354.318l11.906-11.907A1.758,1.758,0,0,0,14.908,339.925Z" transform="translate(-0.001 -339.41)"/>
      </g>
    </g>
    <g id="Group_87" data-name="Group 87" transform="translate(49.197 34.803)">
      <g id="Group_86" data-name="Group 86">
        <path id="Path_52" data-name="Path 52" class="cls-1" d="M285.358,198.505a1.758,1.758,0,0,0-2.486,0l-2.486,2.486a1.758,1.758,0,0,0,2.486,2.486l2.486-2.486A1.758,1.758,0,0,0,285.358,198.505Z" transform="translate(-279.871 -197.99)"/>
      </g>
    </g>
  </g>
</svg>
