<svg xmlns="http://www.w3.org/2000/svg" width="54" height="54" viewBox="0 0 54 54">
  <defs>
    <style>
      .cls-1 {
        fill: #0f0446;
      }
    </style>
  </defs>
  <g id="ruler" transform="translate(0.001 0.001)">
    <g id="Group_13" data-name="Group 13" transform="translate(-0.001 -0.001)">
      <g id="Group_12" data-name="Group 12" transform="translate(0 0)">
        <path id="Path_21" data-name="Path 21" class="cls-1" d="M53.736,11.064,42.935.263a.9.9,0,0,0-1.273,0l-41.4,41.4a.9.9,0,0,0,0,1.273l10.8,10.8a.9.9,0,0,0,1.273,0l41.4-41.4a.9.9,0,0,0,0-1.273ZM11.7,51.827,2.172,42.3,42.3,2.172,51.826,11.7Z" transform="translate(0.001 0.001)"/>
      </g>
    </g>
    <g id="Group_15" data-name="Group 15" transform="translate(40.502 8.099)">
      <g id="Group_14" data-name="Group 14">
        <path id="Path_22" data-name="Path 22" class="cls-1" d="M386.73,76.8a2.7,2.7,0,1,0,2.7,2.7A2.7,2.7,0,0,0,386.73,76.8Zm0,3.6a.9.9,0,1,1,.9-.9A.9.9,0,0,1,386.73,80.4Z" transform="translate(-384.03 -76.797)"/>
      </g>
    </g>
    <g id="Group_17" data-name="Group 17" transform="translate(33.565 8.363)">
      <g id="Group_16" data-name="Group 16" transform="translate(0 0)">
        <rect id="Rectangle_60" data-name="Rectangle 60" class="cls-1" width="1.8" height="3.819" transform="translate(0 1.273) rotate(-45)"/>
      </g>
    </g>
    <g id="Group_19" data-name="Group 19" transform="translate(30.864 11.063)">
      <g id="Group_18" data-name="Group 18" transform="translate(0 0)">
        <rect id="Rectangle_61" data-name="Rectangle 61" class="cls-1" width="1.8" height="5.091" transform="translate(0 1.273) rotate(-45)"/>
      </g>
    </g>
    <g id="Group_21" data-name="Group 21" transform="translate(28.165 13.763)">
      <g id="Group_20" data-name="Group 20" transform="translate(0 0)">
        <rect id="Rectangle_62" data-name="Rectangle 62" class="cls-1" width="1.8" height="3.819" transform="translate(0 1.273) rotate(-45)"/>
      </g>
    </g>
    <g id="Group_23" data-name="Group 23" transform="translate(25.464 16.462)">
      <g id="Group_22" data-name="Group 22" transform="translate(0 0)">
        <rect id="Rectangle_63" data-name="Rectangle 63" class="cls-1" width="1.8" height="5.091" transform="translate(0 1.273) rotate(-45)"/>
      </g>
    </g>
    <g id="Group_25" data-name="Group 25" transform="translate(22.764 19.162)">
      <g id="Group_24" data-name="Group 24" transform="translate(0 0)">
        <rect id="Rectangle_64" data-name="Rectangle 64" class="cls-1" width="1.8" height="3.819" transform="translate(0 1.273) rotate(-45)"/>
      </g>
    </g>
    <g id="Group_27" data-name="Group 27" transform="translate(20.064 21.862)">
      <g id="Group_26" data-name="Group 26" transform="translate(0 0)">
        <rect id="Rectangle_65" data-name="Rectangle 65" class="cls-1" width="1.8" height="5.091" transform="translate(0 1.273) rotate(-45)"/>
      </g>
    </g>
    <g id="Group_29" data-name="Group 29" transform="translate(17.364 24.561)">
      <g id="Group_28" data-name="Group 28" transform="translate(0 0)">
        <rect id="Rectangle_66" data-name="Rectangle 66" class="cls-1" width="1.8" height="3.818" transform="matrix(0.707, -0.707, 0.707, 0.707, 0, 1.273)"/>
      </g>
    </g>
    <g id="Group_31" data-name="Group 31" transform="translate(14.664 27.263)">
      <g id="Group_30" data-name="Group 30" transform="translate(0 0)">
        <rect id="Rectangle_67" data-name="Rectangle 67" class="cls-1" width="1.8" height="5.091" transform="translate(0 1.273) rotate(-45)"/>
      </g>
    </g>
    <g id="Group_33" data-name="Group 33" transform="translate(11.964 29.963)">
      <g id="Group_32" data-name="Group 32" transform="translate(0 0)">
        <rect id="Rectangle_68" data-name="Rectangle 68" class="cls-1" width="1.8" height="3.819" transform="translate(0 1.273) rotate(-45)"/>
      </g>
    </g>
    <g id="Group_35" data-name="Group 35" transform="translate(9.263 32.663)">
      <g id="Group_34" data-name="Group 34" transform="translate(0 0)">
        <rect id="Rectangle_69" data-name="Rectangle 69" class="cls-1" width="1.8" height="5.091" transform="translate(0 1.273) rotate(-45)"/>
      </g>
    </g>
    <g id="Group_37" data-name="Group 37" transform="translate(6.566 35.364)">
      <g id="Group_36" data-name="Group 36" transform="translate(0 0)">
        <rect id="Rectangle_70" data-name="Rectangle 70" class="cls-1" width="1.8" height="3.819" transform="translate(0 1.273) rotate(-45)"/>
      </g>
    </g>
    <g id="Group_39" data-name="Group 39" transform="translate(3.863 38.064)">
      <g id="Group_38" data-name="Group 38" transform="translate(0 0)">
        <rect id="Rectangle_71" data-name="Rectangle 71" class="cls-1" width="1.8" height="5.091" transform="translate(0 1.273) rotate(-45)"/>
      </g>
    </g>
  </g>
</svg>
