<?xml version="1.0" encoding="utf-8"?>
<!-- Generator: Adobe Illustrator 23.0.3, SVG Export Plug-In . SVG Version: 6.00 Build 0)  -->
<svg version="1.1" id="Слой_1" xmlns="http://www.w3.org/2000/svg" xmlns:xlink="http://www.w3.org/1999/xlink" x="0px" y="0px"
	 viewBox="0 0 36 61" style="enable-background:new 0 0 36 61;" xml:space="preserve">
<style type="text/css">
	.st0{enable-background:new    ;}
	.st1{fill:#0F0446;}
</style>
<g class="st0">
	<path class="st1" d="M2.7,44.5l4.9-5.9c3.4,2.8,7,4.6,11.3,4.6c3.4,0,5.5-1.4,5.5-3.7c0-2.1-1.3-3.2-7.6-4.8
		c-7.6-1.9-12.5-4-12.5-11.7c0-6.9,5.5-11.4,13.2-11.4c5.5,0,10.2,1.7,14,4.8l-4.3,6.3c-3.3-2.3-6.6-3.7-9.8-3.7
		c-3.2,0-4.9,1.5-4.9,3.4c0,2.5,1.6,3.3,8.2,5c7.7,2,12,4.8,12,11.4c0,7.5-5.7,11.7-13.9,11.7C13,50.5,7.2,48.5,2.7,44.5z"/>
</g>
</svg>
