<svg id="search_1_" data-name="search(1)" xmlns="http://www.w3.org/2000/svg" width="54" height="54" viewBox="0 0 54 54">
  <defs>
    <style>
      .cls-1 {
        fill: #0f0446;
      }
    </style>
  </defs>
  <g id="Group_41" data-name="Group 41" transform="translate(31.641 20.039)">
    <g id="Group_40" data-name="Group 40">
      <path id="Path_23" data-name="Path 23" class="cls-1" d="M301.055,190a1.055,1.055,0,1,0,1.055,1.055A1.055,1.055,0,0,0,301.055,190Z" transform="translate(-300 -190)"/>
    </g>
  </g>
  <g id="Group_43" data-name="Group 43">
    <g id="Group_42" data-name="Group 42">
      <path id="Path_24" data-name="Path 24" class="cls-1" d="M52.764,46.8,38.686,32.721a20.9,20.9,0,0,0,3.5-11.627A21.094,21.094,0,1,0,21.094,42.188a20.905,20.905,0,0,0,11.627-3.5l3.891,3.891,0,0L46.8,52.764A4.218,4.218,0,1,0,52.764,46.8ZM32.224,36.463h0a19,19,0,1,1,4.239-4.239A19.076,19.076,0,0,1,32.224,36.463Zm2.213.956a21.166,21.166,0,0,0,2.982-2.982l2.992,2.992a25.6,25.6,0,0,1-2.982,2.982ZM51.272,51.272a2.108,2.108,0,0,1-2.982,0l-9.365-9.365a27.714,27.714,0,0,0,2.982-2.982l9.365,9.365a2.108,2.108,0,0,1,0,2.982Z"/>
    </g>
  </g>
  <g id="Group_45" data-name="Group 45" transform="translate(4.219 4.219)">
    <g id="Group_44" data-name="Group 44">
      <path id="Path_25" data-name="Path 25" class="cls-1" d="M56.875,40A16.875,16.875,0,1,0,73.75,56.875,16.894,16.894,0,0,0,56.875,40Zm0,31.641A14.766,14.766,0,1,1,71.641,56.875,14.782,14.782,0,0,1,56.875,71.641Z" transform="translate(-40 -40)"/>
    </g>
  </g>
  <g id="Group_47" data-name="Group 47" transform="translate(20.039 8.438)">
    <g id="Group_46" data-name="Group 46">
      <path id="Path_26" data-name="Path 26" class="cls-1" d="M202.874,88.129A12.676,12.676,0,0,0,191.055,80a1.055,1.055,0,0,0,0,2.109,10.619,10.619,0,0,1,9.85,6.776,1.055,1.055,0,1,0,1.969-.757Z" transform="translate(-190 -80)"/>
    </g>
  </g>
</svg>
