<svg xmlns="http://www.w3.org/2000/svg" width="43.733" height="54" viewBox="0 0 43.733 54">
  <defs>
    <style>
      .cls-1 {
        fill: #0f0446;
      }
    </style>
  </defs>
  <g id="shield" transform="translate(-48.67 0)">
    <g id="Group_49" data-name="Group 49" transform="translate(48.67 0)">
      <g id="Group_48" data-name="Group 48" transform="translate(0 0)">
        <path id="Path_29" data-name="Path 29" class="cls-1" d="M90.2,5.486,72.623.3A7.359,7.359,0,0,0,68.45.3L50.874,5.486a3.09,3.09,0,0,0-2.2,2.948V22.99a33.23,33.23,0,0,0,20.7,30.782,3.066,3.066,0,0,0,2.324,0A33.23,33.23,0,0,0,92.4,22.99V8.433A3.09,3.09,0,0,0,90.2,5.486Zm-.255,17.5a30.771,30.771,0,0,1-19.173,28.5.621.621,0,0,1-.47,0,30.771,30.771,0,0,1-19.173-28.5V8.433a.618.618,0,0,1,.441-.589L69.146,2.66a4.906,4.906,0,0,1,2.782,0L89.5,7.844a.618.618,0,0,1,.441.589V22.989Z" transform="translate(-48.67 0)"/>
      </g>
    </g>
    <g id="Group_51" data-name="Group 51" transform="translate(55.593 6.983)">
      <g id="Group_50" data-name="Group 50">
        <path id="Path_30" data-name="Path 30" class="cls-1" d="M142.879,70.148l-13.1-3.863a1.839,1.839,0,0,0-1.043,0l-13.1,3.863a1.855,1.855,0,0,0-1.322,1.769v10.3a26.125,26.125,0,0,0,4.76,15.095,26.465,26.465,0,0,0,9.33,8.208,1.841,1.841,0,0,0,1.708,0,26.467,26.467,0,0,0,9.33-8.208,26.125,26.125,0,0,0,4.76-15.095v-10.3A1.855,1.855,0,0,0,142.879,70.148Zm-1.136,12.067A23.678,23.678,0,0,1,137.429,95.9a24.013,24.013,0,0,1-8.172,7.29,24.013,24.013,0,0,1-8.172-7.29,23.678,23.678,0,0,1-4.313-13.682V72.377l12.485-3.682,12.485,3.682Z" transform="translate(-114.314 -66.21)"/>
      </g>
    </g>
  </g>
</svg>
