<svg id="speedometer" xmlns="http://www.w3.org/2000/svg" width="54" height="54" viewBox="0 0 54 54">
  <defs>
    <style>
      .cls-1 {
        fill: #0f0446;
      }
    </style>
  </defs>
  <path id="Path_33" data-name="Path 33" class="cls-1" d="M27,0A27,27,0,1,0,54,27,27,27,0,0,0,27,0Zm0,52.2A25.2,25.2,0,1,1,52.2,27,25.2,25.2,0,0,1,27,52.2Zm0,0"/>
  <path id="Path_34" data-name="Path 34" class="cls-1" d="M97.374,75.822v-.108c-.019-.288-.038-.577-.066-.854s-.057-.562-.09-.827c-.03-.232-.061-.464-.1-.63-.039-.27-.09-.54-.148-.824l-.027-.121c-.047-.214-.1-.434-.148-.63-.139-.569-.317-1.17-.54-1.813-.06-.191-.13-.371-.192-.529-.09-.245-.185-.489-.289-.72-.133-.315-.27-.618-.407-.9s-.262-.533-.4-.776a18.656,18.656,0,0,0-1.092-1.829l-.018-.025v0l-.053-.075c-.123-.18-.248-.36-.376-.532l-.126-.173c-.174-.241-.36-.474-.61-.77a1.515,1.515,0,0,1-.114-.145c-.142-.168-.292-.339-.45-.518-.054-.058-.112-.115-.167-.173l1.579-1.58L92.27,59.995l-1.58,1.58c-.071-.068-.136-.134-.209-.2-.16-.141-.32-.283-.52-.45-.019-.014-.039-.028-.065-.048s-.058-.048-.1-.09c-.233-.195-.466-.379-.69-.54l-.013-.01-.18-.131c-.209-.152-.416-.3-.63-.444a18.621,18.621,0,0,0-1.815-1.086c-.262-.145-.524-.282-.77-.4-.305-.152-.61-.285-.913-.414-.245-.108-.49-.206-.74-.3-.171-.066-.343-.131-.5-.18-.669-.231-1.27-.41-1.822-.54-.232-.061-.473-.113-.778-.18-.27-.057-.54-.106-.752-.134-.222-.049-.445-.078-.689-.11-.27-.038-.551-.066-.837-.1s-.57-.046-.911-.065a18.94,18.94,0,0,0-2.047,0h-.1c-.289.019-.579.038-.866.066s-.559.057-.852.1c-.221.029-.444.058-.6.1-.27.04-.54.09-.888.162-.233.052-.473.1-.689.162a18.5,18.5,0,0,0-1.814.54c-.18.058-.354.123-.53.191-.245.09-.49.186-.72.29-.316.133-.621.27-.9.408s-.533.262-.777.4c-.1.05-.188.107-.283.158-.528.288-1.049.6-1.545.934h-.012l-.1.07q-.27.18-.523.37l-.175.128c-.121.09-.241.18-.365.276s-.256.207-.4.33a.524.524,0,0,1-.058.049l-.09.069c-.16.134-.32.276-.517.45-.559.513-1.1,1.055-1.62,1.62-.151.169-.3.339-.472.545a1.556,1.556,0,0,1-.143.17c-.194.233-.378.466-.54.69l-.008.01v.006l-.127.174c-.152.21-.3.418-.45.63a18.489,18.489,0,0,0-1.086,1.814c-.145.262-.281.524-.4.772-.152.3-.286.608-.415.913-.107.245-.2.489-.284.711-.07.18-.139.36-.192.53-.229.666-.408,1.266-.54,1.822-.055.212-.1.432-.151.646l-.029.128c-.058.27-.107.545-.134.753-.051.233-.082.465-.112.69-.037.27-.066.554-.09.833s-.047.568-.067.915S56,76.472,56,76.821s.009.7.027,1v.108c.019.288.038.577.066.854s.057.563.09.827c.03.232.061.464.1.63.039.27.09.54.148.824l.027.121c.047.214.1.434.148.63.139.569.317,1.17.54,1.813.06.191.13.371.192.529.09.245.185.489.289.72.133.315.27.618.407.9s.262.534.4.777c.1.2.217.406.33.6l.45.784,7.028-4.05-.454-.77A12.6,12.6,0,0,1,70.4,65.908a12.813,12.813,0,0,1,12.6,0,12.542,12.542,0,0,1,1.931,1.41L79.179,73.07a4.514,4.514,0,1,0,1.273,1.273L86.2,68.591a12.53,12.53,0,0,1,1.41,14.531l-.45.781,7.028,4.05.45-.784c.113-.2.227-.405.321-.586.145-.262.281-.524.4-.773.152-.3.285-.608.415-.912.107-.245.205-.489.284-.711.07-.18.14-.36.192-.529.229-.666.407-1.267.54-1.823.055-.212.1-.432.152-.646l.029-.128c.058-.27.107-.545.134-.753.051-.233.082-.465.112-.69.037-.27.066-.553.09-.832s.047-.568.067-.915.028-.7.028-1.049-.009-.7-.027-1Zm-2.33-3.564c.05.192.09.392.137.586l.025.116c.05.231.09.463.136.759.04.18.062.36.09.552.035.249.06.508.09.769.014.138.025.279.035.414.009.115.016.226.023.323v.144H91.07A14.33,14.33,0,0,0,89.6,70.415l3.9-2.25c.081.153.162.3.242.474.135.27.254.54.376.832.09.206.173.411.256.639.056.145.113.288.168.463.21.61.374,1.158.5,1.686ZM78.486,58.011c.258.026.516.051.8.09.174.023.347.045.585.094.231.032.464.075.755.137.211.047.428.1.654.153.511.124,1.059.286,1.7.507.143.044.279.1.459.167.206.074.411.156.63.252.279.118.551.236.845.384.149.069.3.152.45.23l-2.25,3.9A14.422,14.422,0,0,0,77.6,62.486V57.944h.09C77.96,57.963,78.225,57.981,78.486,58.011Zm-8.474,1.131c.136-.052.27-.106.439-.158.614-.213,1.162-.374,1.688-.5.21-.054.428-.1.7-.162.232-.049.465-.09.758-.136.175-.038.348-.059.555-.09.248-.034.507-.059.765-.085s.529-.044.74-.058H75.8v4.54a14.407,14.407,0,0,0-5.505,1.44l-2.25-3.9c.153-.081.3-.162.475-.243.27-.136.54-.254.833-.376.2-.1.409-.178.659-.269ZM57.973,74.264c.023-.18.046-.36.1-.61.033-.231.075-.463.123-.687l.027-.123c.044-.194.09-.393.141-.6.124-.514.287-1.062.506-1.7.047-.152.1-.295.168-.461.075-.206.156-.411.251-.63.119-.279.238-.55.385-.845.069-.149.152-.3.23-.45l3.9,2.25a14.343,14.343,0,0,0-1.473,5.509H57.823v-.09c.017-.27.034-.534.06-.795s.054-.516.09-.773ZM59.9,85.478c-.081-.153-.162-.3-.242-.474-.135-.27-.254-.54-.376-.832-.09-.206-.173-.411-.256-.639-.056-.145-.112-.288-.168-.463-.21-.611-.374-1.159-.5-1.687-.05-.192-.09-.392-.137-.586l-.025-.116c-.05-.231-.09-.463-.136-.759-.04-.18-.062-.36-.09-.552-.035-.249-.06-.508-.09-.769-.015-.138-.025-.279-.035-.414-.009-.115-.016-.226-.023-.323v-.14h4.528A14.32,14.32,0,0,0,63.8,83.233Zm4.806-16.621L60.8,66.607c.076-.119.148-.24.228-.36l.023-.032c.161-.235.323-.469.514-.72.149-.208.308-.408.417-.54a2.472,2.472,0,0,0,.228-.27c.129-.155.27-.31.4-.45q.714-.778,1.516-1.515c.148-.13.294-.26.4-.351l.149-.116a1.047,1.047,0,0,0,.1-.09c.2-.167.4-.324.624-.487.25-.189.5-.36.744-.53.113-.076.239-.138.353-.211l2.25,3.9a14.512,14.512,0,0,0-4.033,4.025Zm19.959-4.03,2.25-3.907c.115.074.233.143.346.221.248.171.5.343.764.545.207.148.405.3.548.421.047.045.1.09.143.127s.09.071.121.094c.147.123.294.254.455.4.04.037.077.076.118.113l-3.19,3.19A14.42,14.42,0,0,0,84.664,64.827ZM79.4,76.821a2.7,2.7,0,1,1-2.7-2.7,2.665,2.665,0,0,1,1.157.27l-.7.7a1.754,1.754,0,0,0-.46-.067,1.8,1.8,0,1,0,1.8,1.8,1.755,1.755,0,0,0-.068-.46l.7-.7A2.659,2.659,0,0,1,79.4,76.821ZM87.5,67.3l3.19-3.19c.033.037.069.072.1.108.138.155.275.309.375.428a2.135,2.135,0,0,0,.2.242c.166.2.323.4.486.623l.012.017c.18.239.347.479.52.73.078.113.138.238.212.354l-3.9,2.25A14.336,14.336,0,0,0,87.5,67.3Zm7.932,12.081c-.023.18-.046.36-.1.61-.033.231-.075.463-.123.687l-.027.123c-.043.194-.09.393-.141.6-.124.514-.287,1.062-.506,1.7-.047.152-.1.295-.168.461-.075.206-.156.411-.251.63-.119.279-.238.55-.384.845-.069.15-.152.3-.231.45l-3.9-2.25a14.327,14.327,0,0,0,1.444-5.509h4.53v.09c-.017.27-.034.534-.06.795s-.054.516-.09.773Zm0,0" transform="translate(-49.7 -49.821)"/>
  <path id="Path_35" data-name="Path 35" class="cls-1" d="M152,333.4h19.8V328H152Zm1.8-3.6H170v1.8H153.8Zm0,0" transform="translate(-134.9 -291.1)"/>
</svg>
