<?xml version="1.0" encoding="utf-8"?>
<!-- Generator: Adobe Illustrator 23.0.3, SVG Export Plug-In . SVG Version: 6.00 Build 0)  -->
<svg version="1.1" id="Слой_1" xmlns="http://www.w3.org/2000/svg" xmlns:xlink="http://www.w3.org/1999/xlink" x="0px" y="0px"
	 viewBox="0 0 46 72" style="enable-background:new 0 0 46 72;" xml:space="preserve">
<style type="text/css">
	.st0{enable-background:new    ;}
	.st1{fill:#0F0446;}
</style>
<g class="st0">
	<path class="st1" d="M23,54h-0.1c-1.7,3.1-4.5,4.6-8.3,4.6c-3.6,0-6.5-1.2-8.5-3.6C4,52.6,3,49.4,3,45.3C3,40.8,4.1,36,6.4,31h8.5
		c-2.7,5.2-4,10-4,14.3c0,4.4,1.4,6.7,4.2,6.7c2.7,0,4.1-2.1,4.1-6.4v-7.4h7.8v7.4c0,4.2,1.4,6.4,4.1,6.4c2.8,0,4.2-2.2,4.2-6.7
		c0-4.3-1.3-9.1-4-14.3h8.5c2.3,5.1,3.4,9.8,3.4,14.3c0,4.1-1,7.4-3.1,9.8s-4.9,3.6-8.6,3.6C27.4,58.6,24.7,57.1,23,54z"/>
</g>
</svg>
