<?xml version="1.0" encoding="utf-8"?>
<!-- Generator: Adobe Illustrator 23.0.3, SVG Export Plug-In . SVG Version: 6.00 Build 0)  -->
<svg version="1.1" id="Слой_1" xmlns="http://www.w3.org/2000/svg" xmlns:xlink="http://www.w3.org/1999/xlink" x="0px" y="0px"
	 viewBox="0 0 26 72" style="enable-background:new 0 0 26 72;" xml:space="preserve">
<style type="text/css">
	.st0{enable-background:new    ;}
	.st1{fill:#0F0446;}
</style>
<g class="st0">
	<path class="st1" d="M23.8,51.3v6.1c-2.7,0.8-5.9,1.2-9.7,1.2c-3.7,0-6.7-0.7-8.7-2.1s-3.1-3.3-3.1-5.8c0-3.5,2-5.7,6.1-6.7V44
		c-1.4-0.4-2.6-1.1-3.6-2.2s-1.5-2.4-1.5-3.9c0-2.4,1-4.3,3-5.6s4.8-2,8.5-2c2.9,0,5.6,0.4,8,1.1v6.1c-2.5-1.1-4.8-1.6-6.8-1.6
		c-2.7,0-4.1,0.9-4.1,2.6c0,2.1,1.8,3.1,5.4,3.1c1.2,0,2.2-0.1,3.1-0.2V47c-0.9-0.1-2.2-0.2-3.8-0.2c-3.8,0-5.6,1.1-5.6,3.2
		c0,2,1.7,3.1,5.2,3.1C18.5,53,21.1,52.5,23.8,51.3z"/>
</g>
</svg>
