<svg xmlns="http://www.w3.org/2000/svg" width="15.627" height="20.676" viewBox="0 0 15.627 20.676">
  <defs>
    <style>
      .cls-1 {
        fill: #0f0446;
      }
    </style>
  </defs>
  <g id="lock" transform="translate(-28.204)">
    <g id="Group_2" data-name="Group 2" transform="translate(28.204 7.934)">
      <g id="Group_1" data-name="Group 1" transform="translate(0)">
        <path id="Path_3" data-name="Path 3" class="cls-1" d="M42.629,88.64H29.406a1.2,1.2,0,0,0-1.2,1.2V100.18a1.2,1.2,0,0,0,1.2,1.2H42.629a1.2,1.2,0,0,0,1.2-1.2V89.842A1.2,1.2,0,0,0,42.629,88.64Zm-.24,11.3H29.646V90.082H42.389v9.857Z" transform="translate(-28.204 -88.64)"/>
      </g>
    </g>
    <g id="Group_4" data-name="Group 4" transform="translate(30.127)">
      <g id="Group_3" data-name="Group 3" transform="translate(0)">
        <path id="Path_4" data-name="Path 4" class="cls-1" d="M55.582,0a5.921,5.921,0,0,0-5.89,5.938V8.415h1.443V5.938a4.448,4.448,0,1,1,8.9,0V8.415h1.443V5.938A5.921,5.921,0,0,0,55.582,0Z" transform="translate(-49.692 0)"/>
      </g>
    </g>
    <g id="Group_6" data-name="Group 6" transform="translate(35.176 13.464)">
      <g id="Group_5" data-name="Group 5">
        <path id="Path_5" data-name="Path 5" class="cls-1" d="M106.82,150.419a.721.721,0,0,0-.721.721v1.683a.721.721,0,0,0,1.442,0V151.14A.721.721,0,0,0,106.82,150.419Z" transform="translate(-106.099 -150.419)"/>
      </g>
    </g>
  </g>
</svg>
