<svg xmlns="http://www.w3.org/2000/svg" width="16.969" height="17.001" viewBox="0 0 16.969 17.001">
  <defs>
    <style>
      .cls-1 {
        fill: none;
        stroke: #0f0446;
        stroke-linecap: round;
        stroke-linejoin: round;
      }
    </style>
  </defs>
  <path id="Icon_feather-phone" data-name="Icon feather-phone" class="cls-1" d="M19.136,14.979v2.409a1.606,1.606,0,0,1-1.75,1.606,15.889,15.889,0,0,1-6.929-2.465,15.656,15.656,0,0,1-4.817-4.817A15.889,15.889,0,0,1,3.174,4.75,1.606,1.606,0,0,1,4.772,3H7.181A1.606,1.606,0,0,1,8.786,4.381a10.309,10.309,0,0,0,.562,2.256,1.606,1.606,0,0,1-.361,1.694l-1.02,1.02a12.846,12.846,0,0,0,4.817,4.817l1.02-1.02a1.606,1.606,0,0,1,1.694-.361,10.309,10.309,0,0,0,2.256.562A1.606,1.606,0,0,1,19.136,14.979Z" transform="translate(-2.667 -2.5)"/>
</svg>
